<svg id="Ebene_2" data-name="Ebene 2" xmlns="http://www.w3.org/2000/svg" viewBox="0 0 410 15"><title>divider</title><path d="M205,1a6.5086,6.5086,0,0,1,6.4769,6.066l.0288.434-.0288.434a6.4908,6.4908,0,0,1-12.9538,0l-.0288-.434.0288-.434A6.5086,6.5086,0,0,1,205,1m20.5,2a4.4734,4.4734,0,0,1,4.4789,4.09l.0369.41-.0369.41a4.4974,4.4974,0,0,1-8.9578,0l-.0369-.41.0369-.41A4.4734,4.4734,0,0,1,225.5,3m-41,0a4.4733,4.4733,0,0,1,4.4788,4.09l.037.41-.037.41a4.4973,4.4973,0,0,1-8.9576,0l-.037-.41.037-.41A4.4733,4.4733,0,0,1,184.5,3M205,0a7.4945,7.4945,0,0,0-7.4748,7h-7.55a5.4973,5.4973,0,0,0-10.95,0H0V8H179.0252a5.4973,5.4973,0,0,0,10.95,0h7.55a7.4909,7.4909,0,0,0,14.95,0h7.55a5.4973,5.4973,0,0,0,10.95,0H410V7H230.9748a5.4973,5.4973,0,0,0-10.95,0h-7.55A7.4945,7.4945,0,0,0,205,0Z"/></svg>